<?xml version="1.0" encoding="UTF-8" standalone="no"?>
<svg
   xmlns:dc="http://purl.org/dc/elements/1.1/"
   xmlns:cc="http://creativecommons.org/ns#"
   xmlns:rdf="http://www.w3.org/1999/02/22-rdf-syntax-ns#"
   xmlns:svg="http://www.w3.org/2000/svg"
   xmlns="http://www.w3.org/2000/svg"
   xmlns:sodipodi="http://sodipodi.sourceforge.net/DTD/sodipodi-0.dtd"
   xmlns:inkscape="http://www.inkscape.org/namespaces/inkscape"
   id="Layer_1"
   viewBox="0 0 182.52 106.96"
   version="1.1"
   sodipodi:docname="logotipo-senac.svg"
   width="182.52"
   height="106.96"
   inkscape:version="1.0.2 (1.0.2+r75+1)">
  <metadata
     id="metadata27">
    <rdf:RDF>
      <cc:Work
         rdf:about="">
        <dc:format>image/svg+xml</dc:format>
        <dc:type
           rdf:resource="http://purl.org/dc/dcmitype/StillImage" />
        <dc:title></dc:title>
      </cc:Work>
    </rdf:RDF>
  </metadata>
  <sodipodi:namedview
     pagecolor="#ffffff"
     bordercolor="#666666"
     borderopacity="1"
     objecttolerance="10"
     gridtolerance="10"
     guidetolerance="10"
     inkscape:pageopacity="0"
     inkscape:pageshadow="2"
     inkscape:window-width="1920"
     inkscape:window-height="1029"
     id="namedview25"
     showgrid="false"
     fit-margin-top="0"
     fit-margin-left="0"
     fit-margin-right="0"
     fit-margin-bottom="0"
     inkscape:zoom="2.92"
     inkscape:cx="91.27"
     inkscape:cy="53.822466"
     inkscape:window-x="0"
     inkscape:window-y="0"
     inkscape:window-maximized="1"
     inkscape:current-layer="Layer_1" />
  <defs
     id="defs4">
    <style
       id="style2">.cls-1{fill:#004687;}.cls-2{fill:#fbc881;}.cls-3{fill:#f39900;}</style>
  </defs>
  <g
     id="g38"
     transform="translate(-8.73,-46.52)">
    <path
       class="cls-1"
       d="m 132.63,48.42 c -3.04,-0.72 -6.09,-1.39 -9.25,-1.86 -0.12,-0.02 -0.25,-0.02 -0.37,-0.04 -4.49,3.31 -8.62,6.97 -12.34,10.9 4.12,-0.61 8.32,-0.99 12.62,-1.15 14.99,-0.55 29.25,1.91 42.12,6.59 -9.28,-6.39 -20.48,-11.43 -32.78,-14.44"
       id="path6" />
    <path
       class="cls-3"
       d="m 125.95,81.43 c 16.97,-8.01 34.74,-11.39 51.5,-10.65 -14.43,-6.38 -31,-9.73 -48.5,-9.1 -8.63,0.32 -16.97,1.59 -24.87,3.68 -3.94,5.29 -7.2,10.98 -9.67,16.97 3.81,3.75 7.96,7.27 12.44,10.52 5.83,-4.31 12.21,-8.16 19.11,-11.41"
       id="path8" />
    <path
       class="cls-2"
       d="m 104.08,65.35 c -6.57,1.73 -12.84,4.04 -18.74,6.84 5.97,7.61 13.17,14.6 21.5,20.65 v 0 c -4.47,-3.25 -8.63,-6.78 -12.44,-10.52 2.47,-5.98 5.73,-11.67 9.67,-16.97"
       id="path10" />
    <path
       class="cls-2"
       d="m 106.85,92.85 c -4.47,-3.25 -8.63,-6.78 -12.44,-10.53 -3.54,8.56 -5.46,17.71 -5.49,27.22 5.18,-6.08 11.19,-11.69 17.93,-16.69"
       id="path12" />
    <path
       class="cls-1"
       d="m 191.25,144.55 c -0.2,0 -0.41,0 -0.63,0 -8.61,0 -14.85,-5.51 -14.85,-13.1 v -0.17 c 0,-7.27 6.26,-12.96 14.24,-12.96 0.43,0 0.84,0.02 1.24,0.04 v -8.73 c -0.37,-0.01 -0.75,-0.01 -1.14,-0.01 -15.64,0 -27.45,9.38 -27.45,21.83 v 0.16 c 0,12.14 11.97,21.66 27.25,21.66 0.46,0 0.89,-0.01 1.33,-0.02 v -8.7 z"
       id="path14" />
    <path
       class="cls-1"
       d="m 33.09,126.26 c -9.23,-1.97 -10.53,-2.91 -10.53,-5.83 v -0.14 c 0,-2.15 2.37,-3.86 6.87,-3.86 2.3,0 5.29,0.63 7.39,1.41 v -9.31 c -1.96,-0.34 -4.95,-0.72 -7.24,-0.72 -10.92,0 -18.69,5.33 -18.69,13.39 v 0.12 c 0,8.82 6.93,11.29 17.69,13.57 8.92,1.9 9.76,3.17 9.76,5.65 v 0.13 c 0,2.6 -2.9,4.18 -7.71,4.18 -6.1,0 -10.15,-2.09 -14.95,-5.39 l -6.95,6.91 c 6.41,4.76 13.58,7.11 21.67,7.11 11.52,0 19.61,-4.95 19.61,-13.76 v -0.13 c 0,-7.74 -6.11,-10.98 -16.94,-13.32"
       id="path16" />
    <path
       class="cls-1"
       d="m 60.01,130.2 c 0.92,-4.69 4.07,-7.75 8.91,-7.75 4.84,0 7.99,3.12 8.68,7.75 z m 8.91,-16.03 c -11.98,0 -20.35,8.56 -20.35,18.95 v 0.13 c 0,11.14 9.13,18.81 21.5,18.81 0.36,0 1.51,-0.05 1.86,-0.06 v -8.3 c -0.29,0.01 -1.4,0.07 -1.71,0.07 -5.23,0 -8.91,-2.44 -10.07,-7.13 h 28.4 c 0.07,-0.96 0.15,-1.56 0.15,-2.59 v -0.13 c 0,-10.32 -6.04,-19.76 -19.78,-19.76"
       id="path18" />
    <path
       class="cls-1"
       d="m 125.74,132.11 c 0,-9.85 -6.02,-17.53 -18.76,-17.53 -12.74,0 -18.77,7.68 -18.77,17.53 v 19.27 h 11.8 V 131.4 c 0.21,-3.65 1.65,-7.95 6.97,-7.95 5.32,0 6.86,4.3 7.07,7.95 v 19.98 h 11.69 z"
       id="path20" />
    <path
       class="cls-1"
       d="m 144.92,114.37 c -0.52,0 -2.3,0 -2.79,0.02 v 8.8 c 2.27,0.02 5.38,0.41 6.77,1.14 2.04,1.07 3.1,2.88 3.15,5.33 -2.78,-0.32 -5.93,-0.55 -8.66,-0.61 -11.15,-0.29 -16.66,3.4 -17.76,9.29 -0.02,0.11 -0.04,0.22 -0.06,0.33 0,0.04 0,0.08 -0.02,0.12 -0.09,0.56 -0.14,1.16 -0.14,1.78 v 0.14 c 0,7.21 6.37,11.14 14.12,11.14 5.69,0 9.61,-1.84 12.44,-4.62 v 4.19 h 11.29 v -21.37 c 0,-9.85 -5.61,-15.69 -18.34,-15.69 m 7.17,24.06 c -1.01,5.32 -6.5,6.11 -7.75,6.18 -8.88,0.47 -9.2,-5.61 -6.21,-7.45 4.01,-2.49 14,-1.09 14,-1.09 0,0.36 0.09,1.27 -0.04,2.36"
       id="path22" />
  </g>
</svg>
